<mxfile host="app.diagrams.net" modified="2020-12-23T22:41:08.629Z" agent="5.0 (Windows NT 10.0; Win64; x64) AppleWebKit/537.36 (KHTML, like Gecko) Chrome/87.0.4280.88 Safari/537.36" etag="BOgSzwgLkzLcp80AgsnF" version="14.1.1" type="github">
  <diagram name="Page-1" id="e7e014a7-5840-1c2e-5031-d8a46d1fe8dd">
    <mxGraphModel dx="1038" dy="548" grid="1" gridSize="10" guides="1" tooltips="1" connect="1" arrows="1" fold="1" page="1" pageScale="1" pageWidth="1169" pageHeight="826" background="#ffffff" math="0" shadow="0">
      <root>
        <mxCell id="0" />
        <mxCell id="1" parent="0" />
        <mxCell id="2" value="SERVICIOS" style="swimlane;whiteSpace=wrap" parent="1" vertex="1">
          <mxGeometry x="20" y="21" width="150" height="392" as="geometry" />
        </mxCell>
        <mxCell id="5" value="" style="ellipse;shape=startState;fillColor=#000000;strokeColor=#ff0000;" parent="2" vertex="1">
          <mxGeometry x="61" y="40" width="30" height="30" as="geometry" />
        </mxCell>
        <mxCell id="6" value="" style="edgeStyle=elbowEdgeStyle;elbow=horizontal;verticalAlign=bottom;endArrow=open;endSize=8;strokeColor=#FF0000;endFill=1;rounded=0" parent="2" source="5" target="7" edge="1">
          <mxGeometry x="61" y="40" as="geometry">
            <mxPoint x="76" y="110" as="targetPoint" />
          </mxGeometry>
        </mxCell>
        <mxCell id="7" value="SERVICIOS" style="" parent="2" vertex="1">
          <mxGeometry x="21" y="110" width="110" height="50" as="geometry" />
        </mxCell>
        <mxCell id="8" value="NAVEGACION" style="" parent="2" vertex="1">
          <mxGeometry x="21" y="220" width="110" height="50" as="geometry" />
        </mxCell>
        <mxCell id="9" value="" style="endArrow=open;strokeColor=#FF0000;endFill=1;rounded=0" parent="2" source="7" target="8" edge="1">
          <mxGeometry relative="1" as="geometry" />
        </mxCell>
        <mxCell id="10" value="HOME" style="" parent="2" vertex="1">
          <mxGeometry x="21" y="325" width="110" height="50" as="geometry" />
        </mxCell>
        <mxCell id="11" value="" style="endArrow=open;strokeColor=#FF0000;endFill=1;rounded=0" parent="2" source="8" target="10" edge="1">
          <mxGeometry relative="1" as="geometry" />
        </mxCell>
        <mxCell id="12" value="" style="edgeStyle=elbowEdgeStyle;elbow=horizontal;strokeColor=#FF0000;endArrow=open;endFill=1;rounded=0;entryX=0;entryY=0.5;entryDx=0;entryDy=0;" parent="2" source="10" target="5" edge="1">
          <mxGeometry width="100" height="100" relative="1" as="geometry">
            <mxPoint x="121" y="290" as="sourcePoint" />
            <mxPoint x="221" y="190" as="targetPoint" />
            <Array as="points">
              <mxPoint x="11" y="202" />
            </Array>
          </mxGeometry>
        </mxCell>
        <mxCell id="3" value="ABOUT US" style="swimlane;whiteSpace=wrap" parent="1" vertex="1">
          <mxGeometry x="170" y="21" width="150" height="392" as="geometry" />
        </mxCell>
        <mxCell id="13" value="" style="ellipse;shape=startState;fillColor=#000000;strokeColor=#ff0000;" parent="3" vertex="1">
          <mxGeometry x="60" y="40" width="30" height="30" as="geometry" />
        </mxCell>
        <mxCell id="14" value="" style="edgeStyle=elbowEdgeStyle;elbow=horizontal;verticalAlign=bottom;endArrow=open;endSize=8;strokeColor=#FF0000;endFill=1;rounded=0" parent="3" source="13" target="15" edge="1">
          <mxGeometry x="40" y="20" as="geometry">
            <mxPoint x="55" y="90" as="targetPoint" />
          </mxGeometry>
        </mxCell>
        <mxCell id="15" value="ABOUT US" style="" parent="3" vertex="1">
          <mxGeometry x="20" y="110" width="110" height="50" as="geometry" />
        </mxCell>
        <mxCell id="16" value="NAVEGACION" style="" parent="3" vertex="1">
          <mxGeometry x="20" y="220" width="110" height="50" as="geometry" />
        </mxCell>
        <mxCell id="17" value="" style="endArrow=open;strokeColor=#FF0000;endFill=1;rounded=0" parent="3" source="15" target="16" edge="1">
          <mxGeometry relative="1" as="geometry" />
        </mxCell>
        <mxCell id="18" value="HOME" style="" parent="3" vertex="1">
          <mxGeometry x="20" y="325" width="110" height="50" as="geometry" />
        </mxCell>
        <mxCell id="19" value="" style="endArrow=open;strokeColor=#FF0000;endFill=1;rounded=0" parent="3" source="16" target="18" edge="1">
          <mxGeometry relative="1" as="geometry" />
        </mxCell>
        <mxCell id="20" value="" style="endArrow=open;strokeColor=#FF0000;endFill=1;rounded=0;entryX=0;entryY=0.5;entryDx=0;entryDy=0;" parent="3" target="13" edge="1">
          <mxGeometry relative="1" as="geometry">
            <mxPoint x="20" y="352" as="sourcePoint" />
            <Array as="points">
              <mxPoint x="10" y="352" />
              <mxPoint x="10" y="212" />
              <mxPoint x="10" y="55" />
            </Array>
          </mxGeometry>
        </mxCell>
        <mxCell id="4" value="ADICION" style="swimlane;whiteSpace=wrap" parent="1" vertex="1">
          <mxGeometry x="740" y="21" width="210" height="699" as="geometry" />
        </mxCell>
        <mxCell id="33" value="Crear Nuevo" style="" parent="4" vertex="1">
          <mxGeometry x="75" y="139" width="110" height="50" as="geometry" />
        </mxCell>
        <mxCell id="38" value="" style="ellipse;shape=endState;fillColor=#000000;strokeColor=#ff0000" parent="4" vertex="1">
          <mxGeometry x="115" y="660" width="30" height="30" as="geometry" />
        </mxCell>
        <mxCell id="39" value="" style="endArrow=open;strokeColor=#FF0000;endFill=1;rounded=0;exitX=0.5;exitY=1;exitDx=0;exitDy=0;" parent="4" source="6EbPpDwnDRc1YbIO00Rz-87" target="38" edge="1">
          <mxGeometry relative="1" as="geometry">
            <mxPoint x="130" y="639" as="sourcePoint" />
          </mxGeometry>
        </mxCell>
        <mxCell id="6EbPpDwnDRc1YbIO00Rz-71" style="edgeStyle=orthogonalEdgeStyle;rounded=0;orthogonalLoop=1;jettySize=auto;html=1;exitX=0.5;exitY=1;exitDx=0;exitDy=0;entryX=0.5;entryY=0;entryDx=0;entryDy=0;" edge="1" parent="4" source="6EbPpDwnDRc1YbIO00Rz-69" target="33">
          <mxGeometry relative="1" as="geometry" />
        </mxCell>
        <mxCell id="6EbPpDwnDRc1YbIO00Rz-69" value="Use Case" style="ellipse;whiteSpace=wrap;html=1;" vertex="1" parent="4">
          <mxGeometry x="60" y="49" width="140" height="70" as="geometry" />
        </mxCell>
        <mxCell id="6EbPpDwnDRc1YbIO00Rz-70" value="Admin" style="shape=umlActor;verticalLabelPosition=bottom;verticalAlign=top;html=1;" vertex="1" parent="4">
          <mxGeometry x="20" y="49" width="30" height="60" as="geometry" />
        </mxCell>
        <UserObject label="Formulario de &#xa;Registro" id="6EbPpDwnDRc1YbIO00Rz-72">
          <mxCell style="" vertex="1" parent="4">
            <mxGeometry x="75" y="209" width="110" height="50" as="geometry" />
          </mxCell>
        </UserObject>
        <mxCell id="6EbPpDwnDRc1YbIO00Rz-73" value="Diligenciar&#xa;Formulario" style="" vertex="1" parent="4">
          <mxGeometry x="75" y="279" width="110" height="50" as="geometry" />
        </mxCell>
        <mxCell id="6EbPpDwnDRc1YbIO00Rz-74" value="" style="endArrow=open;strokeColor=#FF0000;endFill=1;rounded=0" edge="1" parent="4" source="33">
          <mxGeometry relative="1" as="geometry">
            <mxPoint x="870" y="210" as="sourcePoint" />
            <mxPoint x="130" y="209" as="targetPoint" />
          </mxGeometry>
        </mxCell>
        <mxCell id="6EbPpDwnDRc1YbIO00Rz-76" value="Valida" style="rhombus;whiteSpace=wrap;html=1;fillColor=#ffffc0;strokeColor=#ff0000;" vertex="1" parent="4">
          <mxGeometry x="90" y="429" width="80" height="39" as="geometry" />
        </mxCell>
        <mxCell id="6EbPpDwnDRc1YbIO00Rz-77" value="no" style="edgeStyle=orthogonalEdgeStyle;html=1;align=left;verticalAlign=bottom;endArrow=open;endSize=8;strokeColor=#ff0000;entryX=0;entryY=0.5;entryDx=0;entryDy=0;" edge="1" source="6EbPpDwnDRc1YbIO00Rz-76" parent="4" target="38">
          <mxGeometry x="-0.8862" y="21" relative="1" as="geometry">
            <mxPoint x="210" y="385" as="targetPoint" />
            <Array as="points">
              <mxPoint x="40" y="449" />
              <mxPoint x="40" y="675" />
            </Array>
            <mxPoint as="offset" />
          </mxGeometry>
        </mxCell>
        <mxCell id="6EbPpDwnDRc1YbIO00Rz-78" value="yes" style="edgeStyle=orthogonalEdgeStyle;html=1;align=left;verticalAlign=top;endArrow=open;endSize=8;strokeColor=#ff0000;" edge="1" source="6EbPpDwnDRc1YbIO00Rz-76" parent="4">
          <mxGeometry x="-1" y="13" relative="1" as="geometry">
            <mxPoint x="130" y="489" as="targetPoint" />
            <Array as="points">
              <mxPoint x="130" y="465" />
            </Array>
            <mxPoint x="-3" y="-9" as="offset" />
          </mxGeometry>
        </mxCell>
        <mxCell id="6EbPpDwnDRc1YbIO00Rz-80" value="Envia&#xa;Formulario" style="" vertex="1" parent="4">
          <mxGeometry x="75" y="349" width="110" height="50" as="geometry" />
        </mxCell>
        <mxCell id="6EbPpDwnDRc1YbIO00Rz-82" value="" style="endArrow=open;strokeColor=#FF0000;endFill=1;rounded=0" edge="1" parent="4">
          <mxGeometry relative="1" as="geometry">
            <mxPoint x="129.5" y="328" as="sourcePoint" />
            <mxPoint x="129.5" y="348" as="targetPoint" />
            <Array as="points">
              <mxPoint x="129.5" y="348" />
            </Array>
          </mxGeometry>
        </mxCell>
        <mxCell id="6EbPpDwnDRc1YbIO00Rz-85" value="" style="endArrow=open;strokeColor=#FF0000;endFill=1;rounded=0;exitX=0.5;exitY=1;exitDx=0;exitDy=0;" edge="1" parent="4" source="6EbPpDwnDRc1YbIO00Rz-80">
          <mxGeometry relative="1" as="geometry">
            <mxPoint x="129.5" y="409" as="sourcePoint" />
            <mxPoint x="129.5" y="429" as="targetPoint" />
            <Array as="points">
              <mxPoint x="129.5" y="429" />
            </Array>
          </mxGeometry>
        </mxCell>
        <mxCell id="6EbPpDwnDRc1YbIO00Rz-86" value="Registra nuevo&#xa;Dato" style="" vertex="1" parent="4">
          <mxGeometry x="75" y="489" width="110" height="50" as="geometry" />
        </mxCell>
        <mxCell id="6EbPpDwnDRc1YbIO00Rz-87" value="Muestra&#xa;MSSG" style="" vertex="1" parent="4">
          <mxGeometry x="75" y="569" width="110" height="50" as="geometry" />
        </mxCell>
        <mxCell id="6EbPpDwnDRc1YbIO00Rz-41" value="ADMON" style="swimlane;whiteSpace=wrap" vertex="1" parent="1">
          <mxGeometry x="320" y="21" width="420" height="479" as="geometry" />
        </mxCell>
        <mxCell id="6EbPpDwnDRc1YbIO00Rz-42" value="" style="ellipse;shape=startState;fillColor=#000000;strokeColor=#ff0000;" vertex="1" parent="6EbPpDwnDRc1YbIO00Rz-41">
          <mxGeometry x="60" y="40" width="30" height="30" as="geometry" />
        </mxCell>
        <mxCell id="6EbPpDwnDRc1YbIO00Rz-43" value="" style="edgeStyle=elbowEdgeStyle;elbow=horizontal;verticalAlign=bottom;endArrow=open;endSize=8;strokeColor=#FF0000;endFill=1;rounded=0" edge="1" parent="6EbPpDwnDRc1YbIO00Rz-41" source="6EbPpDwnDRc1YbIO00Rz-42" target="6EbPpDwnDRc1YbIO00Rz-44">
          <mxGeometry x="40" y="20" as="geometry">
            <mxPoint x="55" y="90" as="targetPoint" />
          </mxGeometry>
        </mxCell>
        <mxCell id="6EbPpDwnDRc1YbIO00Rz-53" style="edgeStyle=orthogonalEdgeStyle;rounded=0;orthogonalLoop=1;jettySize=auto;html=1;exitX=0.5;exitY=1;exitDx=0;exitDy=0;entryX=0.5;entryY=0;entryDx=0;entryDy=0;" edge="1" parent="6EbPpDwnDRc1YbIO00Rz-41" source="6EbPpDwnDRc1YbIO00Rz-44" target="6EbPpDwnDRc1YbIO00Rz-50">
          <mxGeometry relative="1" as="geometry" />
        </mxCell>
        <mxCell id="6EbPpDwnDRc1YbIO00Rz-44" value="LOGIN" style="" vertex="1" parent="6EbPpDwnDRc1YbIO00Rz-41">
          <mxGeometry x="20" y="110" width="110" height="50" as="geometry" />
        </mxCell>
        <mxCell id="6EbPpDwnDRc1YbIO00Rz-45" value="USERS" style="" vertex="1" parent="6EbPpDwnDRc1YbIO00Rz-41">
          <mxGeometry x="20" y="319" width="110" height="50" as="geometry" />
        </mxCell>
        <mxCell id="6EbPpDwnDRc1YbIO00Rz-50" value="User &amp;amp; PSW?" style="rhombus;whiteSpace=wrap;html=1;fillColor=#ffffc0;strokeColor=#ff0000;" vertex="1" parent="6EbPpDwnDRc1YbIO00Rz-41">
          <mxGeometry x="30" y="179" width="100" height="60" as="geometry" />
        </mxCell>
        <mxCell id="6EbPpDwnDRc1YbIO00Rz-51" value="no" style="edgeStyle=orthogonalEdgeStyle;html=1;align=left;verticalAlign=bottom;endArrow=open;endSize=8;strokeColor=#ff0000;entryX=1;entryY=0.25;entryDx=0;entryDy=0;" edge="1" source="6EbPpDwnDRc1YbIO00Rz-50" parent="6EbPpDwnDRc1YbIO00Rz-41" target="6EbPpDwnDRc1YbIO00Rz-44">
          <mxGeometry x="-1" relative="1" as="geometry">
            <mxPoint x="280" y="190" as="targetPoint" />
            <Array as="points">
              <mxPoint x="160" y="209" />
              <mxPoint x="160" y="123" />
            </Array>
          </mxGeometry>
        </mxCell>
        <mxCell id="6EbPpDwnDRc1YbIO00Rz-52" value="yes" style="edgeStyle=orthogonalEdgeStyle;html=1;align=left;verticalAlign=top;endArrow=open;endSize=8;strokeColor=#ff0000;" edge="1" source="6EbPpDwnDRc1YbIO00Rz-50" parent="6EbPpDwnDRc1YbIO00Rz-41" target="6EbPpDwnDRc1YbIO00Rz-63">
          <mxGeometry x="-1" relative="1" as="geometry">
            <mxPoint x="83" y="279" as="targetPoint" />
          </mxGeometry>
        </mxCell>
        <mxCell id="6EbPpDwnDRc1YbIO00Rz-58" style="edgeStyle=none;rounded=0;orthogonalLoop=1;jettySize=auto;html=1;exitX=0.5;exitY=1;exitDx=0;exitDy=0;entryX=0.5;entryY=0;entryDx=0;entryDy=0;" edge="1" parent="6EbPpDwnDRc1YbIO00Rz-41" source="6EbPpDwnDRc1YbIO00Rz-56" target="6EbPpDwnDRc1YbIO00Rz-47">
          <mxGeometry relative="1" as="geometry" />
        </mxCell>
        <mxCell id="6EbPpDwnDRc1YbIO00Rz-56" value="CATEGORIAS" style="" vertex="1" parent="6EbPpDwnDRc1YbIO00Rz-41">
          <mxGeometry x="160" y="319" width="110" height="50" as="geometry" />
        </mxCell>
        <mxCell id="6EbPpDwnDRc1YbIO00Rz-60" style="edgeStyle=orthogonalEdgeStyle;rounded=0;orthogonalLoop=1;jettySize=auto;html=1;exitX=0.5;exitY=1;exitDx=0;exitDy=0;entryX=1;entryY=0.5;entryDx=0;entryDy=0;" edge="1" parent="6EbPpDwnDRc1YbIO00Rz-41" source="6EbPpDwnDRc1YbIO00Rz-57" target="6EbPpDwnDRc1YbIO00Rz-47">
          <mxGeometry relative="1" as="geometry" />
        </mxCell>
        <mxCell id="6EbPpDwnDRc1YbIO00Rz-57" value="ARTICULOS" style="" vertex="1" parent="6EbPpDwnDRc1YbIO00Rz-41">
          <mxGeometry x="290" y="319" width="110" height="50" as="geometry" />
        </mxCell>
        <mxCell id="6EbPpDwnDRc1YbIO00Rz-47" value="ADICION" style="" vertex="1" parent="6EbPpDwnDRc1YbIO00Rz-41">
          <mxGeometry x="160" y="415" width="110" height="50" as="geometry" />
        </mxCell>
        <mxCell id="6EbPpDwnDRc1YbIO00Rz-48" value="" style="endArrow=open;strokeColor=#FF0000;endFill=1;rounded=0" edge="1" parent="6EbPpDwnDRc1YbIO00Rz-41" source="6EbPpDwnDRc1YbIO00Rz-45" target="6EbPpDwnDRc1YbIO00Rz-47">
          <mxGeometry relative="1" as="geometry">
            <Array as="points">
              <mxPoint x="75" y="440" />
            </Array>
          </mxGeometry>
        </mxCell>
        <mxCell id="6EbPpDwnDRc1YbIO00Rz-65" style="edgeStyle=orthogonalEdgeStyle;rounded=0;orthogonalLoop=1;jettySize=auto;html=1;exitX=0.25;exitY=0.5;exitDx=0;exitDy=0;exitPerimeter=0;entryX=0.5;entryY=0;entryDx=0;entryDy=0;" edge="1" parent="6EbPpDwnDRc1YbIO00Rz-41" source="6EbPpDwnDRc1YbIO00Rz-63" target="6EbPpDwnDRc1YbIO00Rz-45">
          <mxGeometry relative="1" as="geometry">
            <Array as="points">
              <mxPoint x="165" y="299" />
              <mxPoint x="75" y="299" />
            </Array>
          </mxGeometry>
        </mxCell>
        <mxCell id="6EbPpDwnDRc1YbIO00Rz-66" style="edgeStyle=orthogonalEdgeStyle;rounded=0;orthogonalLoop=1;jettySize=auto;html=1;exitX=0.75;exitY=0.5;exitDx=0;exitDy=0;exitPerimeter=0;entryX=0.5;entryY=0;entryDx=0;entryDy=0;" edge="1" parent="6EbPpDwnDRc1YbIO00Rz-41" source="6EbPpDwnDRc1YbIO00Rz-63" target="6EbPpDwnDRc1YbIO00Rz-57">
          <mxGeometry relative="1" as="geometry">
            <Array as="points">
              <mxPoint x="265" y="299" />
              <mxPoint x="345" y="299" />
            </Array>
          </mxGeometry>
        </mxCell>
        <mxCell id="6EbPpDwnDRc1YbIO00Rz-63" value="" style="shape=line;html=1;strokeWidth=6;strokeColor=#ff0000;" vertex="1" parent="6EbPpDwnDRc1YbIO00Rz-41">
          <mxGeometry x="115" y="279" width="200" height="10" as="geometry" />
        </mxCell>
        <mxCell id="6EbPpDwnDRc1YbIO00Rz-64" value="" style="edgeStyle=orthogonalEdgeStyle;html=1;verticalAlign=bottom;endArrow=open;endSize=8;strokeColor=#ff0000;" edge="1" source="6EbPpDwnDRc1YbIO00Rz-63" parent="6EbPpDwnDRc1YbIO00Rz-41">
          <mxGeometry relative="1" as="geometry">
            <mxPoint x="215" y="319" as="targetPoint" />
          </mxGeometry>
        </mxCell>
        <mxCell id="6EbPpDwnDRc1YbIO00Rz-75" value="" style="endArrow=open;strokeColor=#FF0000;endFill=1;rounded=0" edge="1" parent="1" target="6EbPpDwnDRc1YbIO00Rz-73">
          <mxGeometry relative="1" as="geometry">
            <mxPoint x="870" y="280" as="sourcePoint" />
            <mxPoint x="880" y="267" as="targetPoint" />
            <Array as="points">
              <mxPoint x="870" y="300" />
            </Array>
          </mxGeometry>
        </mxCell>
        <mxCell id="6EbPpDwnDRc1YbIO00Rz-89" value="" style="endArrow=open;strokeColor=#FF0000;endFill=1;rounded=0;exitX=0.5;exitY=1;exitDx=0;exitDy=0;" edge="1" parent="1">
          <mxGeometry relative="1" as="geometry">
            <mxPoint x="871" y="560" as="sourcePoint" />
            <mxPoint x="870.5" y="590" as="targetPoint" />
            <Array as="points">
              <mxPoint x="870.5" y="590" />
            </Array>
          </mxGeometry>
        </mxCell>
      </root>
    </mxGraphModel>
  </diagram>
</mxfile>
